<svg id="Object" xmlns="http://www.w3.org/2000/svg" viewBox="0 0 151.87 42.59"><defs><style>.cls-1{fill:#ba9a63;}</style></defs><path class="cls-1" d="M13.47.38,1.35,15.58l4.32,19L23.19,43l17.52-8.44,4.32-19L32.91.38ZM39.14,33.29,23.19,41l-16-7.68L3.29,16l11-13.84H32L43.08,16Z" transform="translate(-1.35 -0.38)"/><polygon class="cls-1" points="21.84 2.62 17.91 14.73 5.18 14.73 15.48 22.21 11.54 34.32 21.84 26.84 32.14 34.32 28.21 22.21 38.51 14.73 25.78 14.73 21.84 2.62"/><path d="M76.36,29.58,66.15,3.24c-.33,0-.7,0-1.09,0s-.76,0-1.09,0L54.35,28.11a8.86,8.86,0,0,1-1.74,3.06,4,4,0,0,1-1.83,1.09v.84a14.36,14.36,0,0,1,1.45-.1c.54,0,1.12,0,1.74,0,.84,0,1.68,0,2.52,0s1.71,0,2.6.1v-.84a5.33,5.33,0,0,1-2.72-.63,2.3,2.3,0,0,1-1-2.07,11.8,11.8,0,0,1,1-4.27l1.33-3.44h9.47l2.55,6.89c.56,1.42.65,2.36.26,2.79a4.12,4.12,0,0,1-2.73.73v.84c.67-.05,1.54-.09,2.6-.1s2.21,0,3.44,0c1.07,0,2.11,0,3.13,0s1.9,0,2.63.1v-.84a2.53,2.53,0,0,1-1.37-.61A5,5,0,0,1,76.36,29.58ZM58.06,21l4.51-11.7L66.9,21Z" transform="translate(-1.35 -0.38)"/><path d="M91.06,20.34c-.87-.65-1.7-1.24-2.5-1.79a9.16,9.16,0,0,1-2-1.76,3.46,3.46,0,0,1-.75-2.21,2.71,2.71,0,0,1,.86-2.14,3.18,3.18,0,0,1,2.16-.76,4.36,4.36,0,0,1,3,1,6.39,6.39,0,0,1,1.73,2.46,13.34,13.34,0,0,1,.8,3h.92c0-1.85,0-3.32,0-4.43s.07-2.06.13-2.88h-.93c-.19,1.6-.77,2.05-1.72,1.35A11.28,11.28,0,0,0,91,11.31a8,8,0,0,0-3-.51,8.85,8.85,0,0,0-3.38.65A6.18,6.18,0,0,0,82,13.34a4.91,4.91,0,0,0-1,3.13,5.54,5.54,0,0,0,.78,3,9.15,9.15,0,0,0,2,2.27c.83.67,1.72,1.36,2.67,2.06a30.34,30.34,0,0,1,3.15,2.6,4.11,4.11,0,0,1,1.26,3.07A2.94,2.94,0,0,1,89.88,32a3.66,3.66,0,0,1-2.18.76,4.57,4.57,0,0,1-3-1,6.08,6.08,0,0,1-1.78-2.73A19.3,19.3,0,0,1,82,25h-.93c0,2.13,0,3.83,0,5.12S81,32.5,80.89,33.4h.93a2.8,2.8,0,0,1,.48-1.26A.56.56,0,0,1,83,32a6.06,6.06,0,0,1,.9.42l1,.55a8.2,8.2,0,0,0,1.63.54,9.39,9.39,0,0,0,2.06.21A9.77,9.77,0,0,0,92.46,33a6.91,6.91,0,0,0,2.82-2.1,5.21,5.21,0,0,0,1.07-3.3,5.66,5.66,0,0,0-1.53-4.1A26.27,26.27,0,0,0,91.06,20.34Z" transform="translate(-1.35 -0.38)"/><path d="M110.92,31a2.5,2.5,0,0,1-1.76.74,2,2,0,0,1-1.56-.63,3.3,3.3,0,0,1-.54-2.14V12.27h5.37v-.84h-5.37V4.5a10.57,10.57,0,0,1-2.48.8,16.38,16.38,0,0,1-2.81.29v5.84h-3.7v.84h3.7V26.43a16.33,16.33,0,0,0,.31,3.57,4.92,4.92,0,0,0,1.24,2.31,4.85,4.85,0,0,0,1.7,1,7.1,7.1,0,0,0,2.42.36,4.92,4.92,0,0,0,3.71-1.36,8.22,8.22,0,0,0,2-3.43l-.76-.33A6.16,6.16,0,0,1,110.92,31Z" transform="translate(-1.35 -0.38)"/><path d="M130,11.35a3.89,3.89,0,0,0-2.16-.55,5,5,0,0,0-2.5.65,6.89,6.89,0,0,0-2,1.66,9.1,9.1,0,0,0-1.33,2.19V10.93a19.74,19.74,0,0,1-2.58.44,28,28,0,0,1-3,.15c-.84,0-1.71,0-2.61-.13v.88a2.52,2.52,0,0,1,2.25.9,5.08,5.08,0,0,1,.61,2.8V29.2a3.35,3.35,0,0,1-.65,2.39,3.14,3.14,0,0,1-2.21.63v.88l2.42-.1c1.08,0,2.16-.06,3.25-.06q2,0,3.81.06l2.79.1v-.88a5.61,5.61,0,0,1-3.07-.69,3.07,3.07,0,0,1-1-2.75V18.4a7.09,7.09,0,0,1,.57-2.66,7.47,7.47,0,0,1,1.57-2.44,3.68,3.68,0,0,1,2.36-1.15,1.68,1.68,0,0,1,1,.16,4.31,4.31,0,0,0-1.2,1.14,2.87,2.87,0,0,0-.53,1.76,2.29,2.29,0,0,0,.8,1.85,3.08,3.08,0,0,0,2.06.67,2.75,2.75,0,0,0,2.16-.92,3.35,3.35,0,0,0,.82-2.31,3.91,3.91,0,0,0-.42-1.77A3.45,3.45,0,0,0,130,11.35Z" transform="translate(-1.35 -0.38)"/><path d="M151.89,15.63A8.29,8.29,0,0,0,148.32,12a11.06,11.06,0,0,0-5.14-1.16A11.24,11.24,0,0,0,138,12a8.19,8.19,0,0,0-3.57,3.67,14.47,14.47,0,0,0-1.3,6.64,14.45,14.45,0,0,0,1.3,6.63A8.12,8.12,0,0,0,138,32.56a11.49,11.49,0,0,0,5.17,1.13,11.3,11.3,0,0,0,5.14-1.13,8.22,8.22,0,0,0,3.57-3.66,14.18,14.18,0,0,0,1.33-6.63A14.19,14.19,0,0,0,151.89,15.63Zm-5.52,14.74c-.84,1.66-1.9,2.48-3.19,2.48S140.79,32,140,30.37s-1.24-4.35-1.24-8.1.41-6.46,1.24-8.13,1.89-2.5,3.21-2.5,2.35.83,3.19,2.5,1.26,4.38,1.26,8.13S147.21,28.72,146.37,30.37Z" transform="translate(-1.35 -0.38)"/></svg>